{
    "asset" : {
        "generator" : "Khronos glTF Blender I/O v3.2.43",
        "version" : "2.0"
    },
    "scene" : 0,
    "scenes" : [
        {
            "name" : "Scene",
            "nodes" : [
                2,
                5,
                8,
                11
            ]
        }
    ],
    "nodes" : [
        {
            "mesh" : 0,
            "name" : "poolChairSupport",
            "rotation" : [
                0.35578370094299316,
                0,
                0,
                0.9345683455467224
            ],
            "translation" : [
                0,
                0.332952082157135,
                6.22868537902832e-06
            ]
        },
        {
            "children" : [
                0
            ],
            "mesh" : 1,
            "name" : "poolChairRest_Green",
            "rotation" : [
                -0.2164396047592163,
                0,
                0,
                0.9762960076332092
            ],
            "translation" : [
                0,
                0.3269883394241333,
                -0.552030622959137
            ]
        },
        {
            "children" : [
                1
            ],
            "mesh" : 2,
            "name" : "poolChair_Green",
            "translation" : [
                -1.5,
                0,
                -0.30000001192092896
            ]
        },
        {
            "mesh" : 3,
            "name" : "poolChairSupport.001",
            "rotation" : [
                0.35578370094299316,
                0,
                0,
                0.9345683455467224
            ],
            "translation" : [
                0,
                0.33295202255249023,
                6.22868537902832e-06
            ]
        },
        {
            "children" : [
                3
            ],
            "mesh" : 4,
            "name" : "poolChairRest.001",
            "rotation" : [
                -0.2164396047592163,
                0,
                0,
                0.9762960076332092
            ],
            "translation" : [
                0,
                0.3269883394241333,
                -0.5520305633544922
            ]
        },
        {
            "children" : [
                4
            ],
            "mesh" : 5,
            "name" : "poolChair_Red",
            "translation" : [
                -0.5,
                0,
                -0.09999999403953552
            ]
        },
        {
            "mesh" : 6,
            "name" : "poolChairSupport.002",
            "rotation" : [
                0.35578370094299316,
                0,
                0,
                0.9345683455467224
            ],
            "translation" : [
                0,
                0.3329520523548126,
                6.318092346191406e-06
            ]
        },
        {
            "children" : [
                6
            ],
            "mesh" : 7,
            "name" : "poolChairRest.002",
            "rotation" : [
                -0.2164396047592163,
                0,
                0,
                0.9762960076332092
            ],
            "translation" : [
                0,
                0.3269883394241333,
                -0.552030622959137
            ]
        },
        {
            "children" : [
                7
            ],
            "mesh" : 8,
            "name" : "poolChair_Blue",
            "translation" : [
                0.5,
                0,
                0.10000000894069672
            ]
        },
        {
            "mesh" : 9,
            "name" : "poolChairSupport.003",
            "rotation" : [
                0.35578370094299316,
                0,
                0,
                0.9345683455467224
            ],
            "translation" : [
                0,
                0.33295202255249023,
                6.280839443206787e-06
            ]
        },
        {
            "children" : [
                9
            ],
            "mesh" : 10,
            "name" : "poolChairRest.003",
            "rotation" : [
                -0.2164396047592163,
                0,
                0,
                0.9762960076332092
            ],
            "translation" : [
                0,
                0.3269883394241333,
                -0.552030622959137
            ]
        },
        {
            "children" : [
                10
            ],
            "mesh" : 11,
            "name" : "poolChair_Yellow",
            "translation" : [
                1.5,
                0,
                0.30000001192092896
            ]
        }
    ],
    "materials" : [
        {
            "doubleSided" : true,
            "name" : "poolChair_Green",
            "pbrMetallicRoughness" : {
                "baseColorFactor" : [
                    0.800000011920929,
                    0.800000011920929,
                    0.800000011920929,
                    1
                ]
            }
        },
        {
            "doubleSided" : true,
            "name" : "poolChair_Red",
            "pbrMetallicRoughness" : {
                "baseColorFactor" : [
                    0.800000011920929,
                    0.800000011920929,
                    0.800000011920929,
                    1
                ]
            }
        },
        {
            "doubleSided" : true,
            "name" : "poolChair_Blue",
            "pbrMetallicRoughness" : {
                "baseColorFactor" : [
                    0.800000011920929,
                    0.800000011920929,
                    0.800000011920929,
                    1
                ]
            }
        },
        {
            "doubleSided" : true,
            "name" : "poolChair_Yellow",
            "pbrMetallicRoughness" : {
                "baseColorFactor" : [
                    0.800000011920929,
                    0.800000011920929,
                    0.800000011920929,
                    1
                ]
            }
        }
    ],
    "meshes" : [
        {
            "name" : "poolChairSupport_Green",
            "primitives" : [
                {
                    "attributes" : {
                        "POSITION" : 0,
                        "NORMAL" : 1,
                        "TEXCOORD_0" : 2,
                        "COLOR_0" : 3
                    },
                    "indices" : 4,
                    "material" : 0
                }
            ]
        },
        {
            "name" : "poolChairRest_Green",
            "primitives" : [
                {
                    "attributes" : {
                        "POSITION" : 5,
                        "NORMAL" : 6,
                        "TEXCOORD_0" : 7,
                        "COLOR_0" : 8
                    },
                    "indices" : 9,
                    "material" : 0
                }
            ]
        },
        {
            "name" : "poolChair_Green",
            "primitives" : [
                {
                    "attributes" : {
                        "POSITION" : 10,
                        "NORMAL" : 11,
                        "TEXCOORD_0" : 12,
                        "COLOR_0" : 13
                    },
                    "indices" : 14,
                    "material" : 0
                }
            ]
        },
        {
            "name" : "poolChairSupport_Red",
            "primitives" : [
                {
                    "attributes" : {
                        "POSITION" : 15,
                        "NORMAL" : 16,
                        "TEXCOORD_0" : 17,
                        "COLOR_0" : 18
                    },
                    "indices" : 4,
                    "material" : 1
                }
            ]
        },
        {
            "name" : "poolChairRest_Red",
            "primitives" : [
                {
                    "attributes" : {
                        "POSITION" : 19,
                        "NORMAL" : 20,
                        "TEXCOORD_0" : 21,
                        "COLOR_0" : 22
                    },
                    "indices" : 9,
                    "material" : 1
                }
            ]
        },
        {
            "name" : "poolChair_Red",
            "primitives" : [
                {
                    "attributes" : {
                        "POSITION" : 23,
                        "NORMAL" : 24,
                        "TEXCOORD_0" : 25,
                        "COLOR_0" : 26
                    },
                    "indices" : 14,
                    "material" : 1
                }
            ]
        },
        {
            "name" : "poolChairSupport_Blue",
            "primitives" : [
                {
                    "attributes" : {
                        "POSITION" : 27,
                        "NORMAL" : 28,
                        "TEXCOORD_0" : 29,
                        "COLOR_0" : 30
                    },
                    "indices" : 4,
                    "material" : 2
                }
            ]
        },
        {
            "name" : "poolChairRest_Blue",
            "primitives" : [
                {
                    "attributes" : {
                        "POSITION" : 31,
                        "NORMAL" : 32,
                        "TEXCOORD_0" : 33,
                        "COLOR_0" : 34
                    },
                    "indices" : 9,
                    "material" : 2
                }
            ]
        },
        {
            "name" : "poolChair_Blue",
            "primitives" : [
                {
                    "attributes" : {
                        "POSITION" : 35,
                        "NORMAL" : 36,
                        "TEXCOORD_0" : 37,
                        "COLOR_0" : 38
                    },
                    "indices" : 14,
                    "material" : 2
                }
            ]
        },
        {
            "name" : "poolChairSupport_Yellow",
            "primitives" : [
                {
                    "attributes" : {
                        "POSITION" : 39,
                        "NORMAL" : 40,
                        "TEXCOORD_0" : 41,
                        "COLOR_0" : 42
                    },
                    "indices" : 4,
                    "material" : 3
                }
            ]
        },
        {
            "name" : "poolChairRest_Yellow",
            "primitives" : [
                {
                    "attributes" : {
                        "POSITION" : 43,
                        "NORMAL" : 44,
                        "TEXCOORD_0" : 45,
                        "COLOR_0" : 46
                    },
                    "indices" : 9,
                    "material" : 3
                }
            ]
        },
        {
            "name" : "poolChair_Yellow",
            "primitives" : [
                {
                    "attributes" : {
                        "POSITION" : 47,
                        "NORMAL" : 48,
                        "TEXCOORD_0" : 49,
                        "COLOR_0" : 50
                    },
                    "indices" : 14,
                    "material" : 3
                }
            ]
        }
    ],
    "accessors" : [
        {
            "bufferView" : 0,
            "componentType" : 5126,
            "count" : 612,
            "max" : [
                0.26760053634643555,
                0.006789684295654297,
                0.006789743900299072
            ],
            "min" : [
                -0.26760053634643555,
                -0.4693843126296997,
                -0.006789743900299072
            ],
            "type" : "VEC3"
        },
        {
            "bufferView" : 1,
            "componentType" : 5126,
            "count" : 612,
            "type" : "VEC3"
        },
        {
            "bufferView" : 2,
            "componentType" : 5126,
            "count" : 612,
            "type" : "VEC2"
        },
        {
            "bufferView" : 3,
            "componentType" : 5123,
            "count" : 612,
            "normalized" : true,
            "type" : "VEC4"
        },
        {
            "bufferView" : 4,
            "componentType" : 5123,
            "count" : 3168,
            "type" : "SCALAR"
        },
        {
            "bufferView" : 5,
            "componentType" : 5126,
            "count" : 799,
            "max" : [
                0.26573723554611206,
                0.6980923414230347,
                0.01605832576751709
            ],
            "min" : [
                -0.26573723554611206,
                -0.01321682333946228,
                -0.1618826985359192
            ],
            "type" : "VEC3"
        },
        {
            "bufferView" : 6,
            "componentType" : 5126,
            "count" : 799,
            "type" : "VEC3"
        },
        {
            "bufferView" : 7,
            "componentType" : 5126,
            "count" : 799,
            "type" : "VEC2"
        },
        {
            "bufferView" : 8,
            "componentType" : 5123,
            "count" : 799,
            "normalized" : true,
            "type" : "VEC4"
        },
        {
            "bufferView" : 9,
            "componentType" : 5123,
            "count" : 3684,
            "type" : "SCALAR"
        },
        {
            "bufferView" : 10,
            "componentType" : 5126,
            "count" : 2824,
            "max" : [
                0.3000328838825226,
                0.6436911821365356,
                1.019360065460205
            ],
            "min" : [
                -0.3000328838825226,
                -0.00044916756451129913,
                -0.8878187537193298
            ],
            "type" : "VEC3"
        },
        {
            "bufferView" : 11,
            "componentType" : 5126,
            "count" : 2824,
            "type" : "VEC3"
        },
        {
            "bufferView" : 12,
            "componentType" : 5126,
            "count" : 2824,
            "type" : "VEC2"
        },
        {
            "bufferView" : 13,
            "componentType" : 5123,
            "count" : 2824,
            "normalized" : true,
            "type" : "VEC4"
        },
        {
            "bufferView" : 14,
            "componentType" : 5123,
            "count" : 11370,
            "type" : "SCALAR"
        },
        {
            "bufferView" : 15,
            "componentType" : 5126,
            "count" : 612,
            "max" : [
                0.26760053634643555,
                0.006789684295654297,
                0.006789743900299072
            ],
            "min" : [
                -0.26760053634643555,
                -0.4693843126296997,
                -0.006789743900299072
            ],
            "type" : "VEC3"
        },
        {
            "bufferView" : 16,
            "componentType" : 5126,
            "count" : 612,
            "type" : "VEC3"
        },
        {
            "bufferView" : 17,
            "componentType" : 5126,
            "count" : 612,
            "type" : "VEC2"
        },
        {
            "bufferView" : 18,
            "componentType" : 5123,
            "count" : 612,
            "normalized" : true,
            "type" : "VEC4"
        },
        {
            "bufferView" : 19,
            "componentType" : 5126,
            "count" : 799,
            "max" : [
                0.26573723554611206,
                0.6980923414230347,
                0.01605832576751709
            ],
            "min" : [
                -0.26573723554611206,
                -0.01321682333946228,
                -0.1618826985359192
            ],
            "type" : "VEC3"
        },
        {
            "bufferView" : 20,
            "componentType" : 5126,
            "count" : 799,
            "type" : "VEC3"
        },
        {
            "bufferView" : 21,
            "componentType" : 5126,
            "count" : 799,
            "type" : "VEC2"
        },
        {
            "bufferView" : 22,
            "componentType" : 5123,
            "count" : 799,
            "normalized" : true,
            "type" : "VEC4"
        },
        {
            "bufferView" : 23,
            "componentType" : 5126,
            "count" : 2824,
            "max" : [
                0.3000328838825226,
                0.6436911821365356,
                1.019360065460205
            ],
            "min" : [
                -0.3000328838825226,
                -0.00044916756451129913,
                -0.8878187537193298
            ],
            "type" : "VEC3"
        },
        {
            "bufferView" : 24,
            "componentType" : 5126,
            "count" : 2824,
            "type" : "VEC3"
        },
        {
            "bufferView" : 25,
            "componentType" : 5126,
            "count" : 2824,
            "type" : "VEC2"
        },
        {
            "bufferView" : 26,
            "componentType" : 5123,
            "count" : 2824,
            "normalized" : true,
            "type" : "VEC4"
        },
        {
            "bufferView" : 27,
            "componentType" : 5126,
            "count" : 612,
            "max" : [
                0.26760053634643555,
                0.006789684295654297,
                0.006789743900299072
            ],
            "min" : [
                -0.26760053634643555,
                -0.4693843126296997,
                -0.006789743900299072
            ],
            "type" : "VEC3"
        },
        {
            "bufferView" : 28,
            "componentType" : 5126,
            "count" : 612,
            "type" : "VEC3"
        },
        {
            "bufferView" : 29,
            "componentType" : 5126,
            "count" : 612,
            "type" : "VEC2"
        },
        {
            "bufferView" : 30,
            "componentType" : 5123,
            "count" : 612,
            "normalized" : true,
            "type" : "VEC4"
        },
        {
            "bufferView" : 31,
            "componentType" : 5126,
            "count" : 799,
            "max" : [
                0.26573723554611206,
                0.6980923414230347,
                0.01605832576751709
            ],
            "min" : [
                -0.26573723554611206,
                -0.01321682333946228,
                -0.1618826985359192
            ],
            "type" : "VEC3"
        },
        {
            "bufferView" : 32,
            "componentType" : 5126,
            "count" : 799,
            "type" : "VEC3"
        },
        {
            "bufferView" : 33,
            "componentType" : 5126,
            "count" : 799,
            "type" : "VEC2"
        },
        {
            "bufferView" : 34,
            "componentType" : 5123,
            "count" : 799,
            "normalized" : true,
            "type" : "VEC4"
        },
        {
            "bufferView" : 35,
            "componentType" : 5126,
            "count" : 2824,
            "max" : [
                0.3000328838825226,
                0.6436911821365356,
                1.019360065460205
            ],
            "min" : [
                -0.3000328838825226,
                -0.00044916756451129913,
                -0.8878187537193298
            ],
            "type" : "VEC3"
        },
        {
            "bufferView" : 36,
            "componentType" : 5126,
            "count" : 2824,
            "type" : "VEC3"
        },
        {
            "bufferView" : 37,
            "componentType" : 5126,
            "count" : 2824,
            "type" : "VEC2"
        },
        {
            "bufferView" : 38,
            "componentType" : 5123,
            "count" : 2824,
            "normalized" : true,
            "type" : "VEC4"
        },
        {
            "bufferView" : 39,
            "componentType" : 5126,
            "count" : 612,
            "max" : [
                0.26760053634643555,
                0.006789684295654297,
                0.006789743900299072
            ],
            "min" : [
                -0.26760053634643555,
                -0.4693843126296997,
                -0.006789743900299072
            ],
            "type" : "VEC3"
        },
        {
            "bufferView" : 40,
            "componentType" : 5126,
            "count" : 612,
            "type" : "VEC3"
        },
        {
            "bufferView" : 41,
            "componentType" : 5126,
            "count" : 612,
            "type" : "VEC2"
        },
        {
            "bufferView" : 42,
            "componentType" : 5123,
            "count" : 612,
            "normalized" : true,
            "type" : "VEC4"
        },
        {
            "bufferView" : 43,
            "componentType" : 5126,
            "count" : 799,
            "max" : [
                0.26573723554611206,
                0.6980923414230347,
                0.01605832576751709
            ],
            "min" : [
                -0.26573723554611206,
                -0.01321682333946228,
                -0.1618826985359192
            ],
            "type" : "VEC3"
        },
        {
            "bufferView" : 44,
            "componentType" : 5126,
            "count" : 799,
            "type" : "VEC3"
        },
        {
            "bufferView" : 45,
            "componentType" : 5126,
            "count" : 799,
            "type" : "VEC2"
        },
        {
            "bufferView" : 46,
            "componentType" : 5123,
            "count" : 799,
            "normalized" : true,
            "type" : "VEC4"
        },
        {
            "bufferView" : 47,
            "componentType" : 5126,
            "count" : 2824,
            "max" : [
                0.3000328838825226,
                0.6436911821365356,
                1.019360065460205
            ],
            "min" : [
                -0.3000328838825226,
                -0.00044916756451129913,
                -0.8878187537193298
            ],
            "type" : "VEC3"
        },
        {
            "bufferView" : 48,
            "componentType" : 5126,
            "count" : 2824,
            "type" : "VEC3"
        },
        {
            "bufferView" : 49,
            "componentType" : 5126,
            "count" : 2824,
            "type" : "VEC2"
        },
        {
            "bufferView" : 50,
            "componentType" : 5123,
            "count" : 2824,
            "normalized" : true,
            "type" : "VEC4"
        }
    ],
    "bufferViews" : [
        {
            "buffer" : 0,
            "byteLength" : 7344,
            "byteOffset" : 0
        },
        {
            "buffer" : 0,
            "byteLength" : 7344,
            "byteOffset" : 7344
        },
        {
            "buffer" : 0,
            "byteLength" : 4896,
            "byteOffset" : 14688
        },
        {
            "buffer" : 0,
            "byteLength" : 4896,
            "byteOffset" : 19584
        },
        {
            "buffer" : 0,
            "byteLength" : 6336,
            "byteOffset" : 24480
        },
        {
            "buffer" : 0,
            "byteLength" : 9588,
            "byteOffset" : 30816
        },
        {
            "buffer" : 0,
            "byteLength" : 9588,
            "byteOffset" : 40404
        },
        {
            "buffer" : 0,
            "byteLength" : 6392,
            "byteOffset" : 49992
        },
        {
            "buffer" : 0,
            "byteLength" : 6392,
            "byteOffset" : 56384
        },
        {
            "buffer" : 0,
            "byteLength" : 7368,
            "byteOffset" : 62776
        },
        {
            "buffer" : 0,
            "byteLength" : 33888,
            "byteOffset" : 70144
        },
        {
            "buffer" : 0,
            "byteLength" : 33888,
            "byteOffset" : 104032
        },
        {
            "buffer" : 0,
            "byteLength" : 22592,
            "byteOffset" : 137920
        },
        {
            "buffer" : 0,
            "byteLength" : 22592,
            "byteOffset" : 160512
        },
        {
            "buffer" : 0,
            "byteLength" : 22740,
            "byteOffset" : 183104
        },
        {
            "buffer" : 0,
            "byteLength" : 7344,
            "byteOffset" : 205844
        },
        {
            "buffer" : 0,
            "byteLength" : 7344,
            "byteOffset" : 213188
        },
        {
            "buffer" : 0,
            "byteLength" : 4896,
            "byteOffset" : 220532
        },
        {
            "buffer" : 0,
            "byteLength" : 4896,
            "byteOffset" : 225428
        },
        {
            "buffer" : 0,
            "byteLength" : 9588,
            "byteOffset" : 230324
        },
        {
            "buffer" : 0,
            "byteLength" : 9588,
            "byteOffset" : 239912
        },
        {
            "buffer" : 0,
            "byteLength" : 6392,
            "byteOffset" : 249500
        },
        {
            "buffer" : 0,
            "byteLength" : 6392,
            "byteOffset" : 255892
        },
        {
            "buffer" : 0,
            "byteLength" : 33888,
            "byteOffset" : 262284
        },
        {
            "buffer" : 0,
            "byteLength" : 33888,
            "byteOffset" : 296172
        },
        {
            "buffer" : 0,
            "byteLength" : 22592,
            "byteOffset" : 330060
        },
        {
            "buffer" : 0,
            "byteLength" : 22592,
            "byteOffset" : 352652
        },
        {
            "buffer" : 0,
            "byteLength" : 7344,
            "byteOffset" : 375244
        },
        {
            "buffer" : 0,
            "byteLength" : 7344,
            "byteOffset" : 382588
        },
        {
            "buffer" : 0,
            "byteLength" : 4896,
            "byteOffset" : 389932
        },
        {
            "buffer" : 0,
            "byteLength" : 4896,
            "byteOffset" : 394828
        },
        {
            "buffer" : 0,
            "byteLength" : 9588,
            "byteOffset" : 399724
        },
        {
            "buffer" : 0,
            "byteLength" : 9588,
            "byteOffset" : 409312
        },
        {
            "buffer" : 0,
            "byteLength" : 6392,
            "byteOffset" : 418900
        },
        {
            "buffer" : 0,
            "byteLength" : 6392,
            "byteOffset" : 425292
        },
        {
            "buffer" : 0,
            "byteLength" : 33888,
            "byteOffset" : 431684
        },
        {
            "buffer" : 0,
            "byteLength" : 33888,
            "byteOffset" : 465572
        },
        {
            "buffer" : 0,
            "byteLength" : 22592,
            "byteOffset" : 499460
        },
        {
            "buffer" : 0,
            "byteLength" : 22592,
            "byteOffset" : 522052
        },
        {
            "buffer" : 0,
            "byteLength" : 7344,
            "byteOffset" : 544644
        },
        {
            "buffer" : 0,
            "byteLength" : 7344,
            "byteOffset" : 551988
        },
        {
            "buffer" : 0,
            "byteLength" : 4896,
            "byteOffset" : 559332
        },
        {
            "buffer" : 0,
            "byteLength" : 4896,
            "byteOffset" : 564228
        },
        {
            "buffer" : 0,
            "byteLength" : 9588,
            "byteOffset" : 569124
        },
        {
            "buffer" : 0,
            "byteLength" : 9588,
            "byteOffset" : 578712
        },
        {
            "buffer" : 0,
            "byteLength" : 6392,
            "byteOffset" : 588300
        },
        {
            "buffer" : 0,
            "byteLength" : 6392,
            "byteOffset" : 594692
        },
        {
            "buffer" : 0,
            "byteLength" : 33888,
            "byteOffset" : 601084
        },
        {
            "buffer" : 0,
            "byteLength" : 33888,
            "byteOffset" : 634972
        },
        {
            "buffer" : 0,
            "byteLength" : 22592,
            "byteOffset" : 668860
        },
        {
            "buffer" : 0,
            "byteLength" : 22592,
            "byteOffset" : 691452
        }
    ],
    "buffers" : [
        {
            "byteLength" : 714044,
            "uri" : "data:application/octet-stream;base64,"
        }
    ]
}
